<svg width="15" height="14" viewBox="0 0 15 14" fill="none" xmlns="http://www.w3.org/2000/svg">
<g id="SVG">
<g id="Clip path group">
<mask id="mask0_6_1705" style="mask-type:luminance" maskUnits="userSpaceOnUse" x="1" y="0" width="14" height="14">
<g id="clip0_5_1002">
<path id="Vector" d="M14.2891 0.970215H1.28906V13.9702H14.2891V0.970215Z" fill="white"/>
</g>
</mask>
<g mask="url(#mask0_6_1705)">
<g id="Group">
<path id="Vector_2" d="M10.7701 0.970215H4.80804C2.86764 0.970215 1.28906 2.54879 1.28906 4.48919V10.4513C1.28906 12.3916 2.86764 13.9702 4.80804 13.9702H10.7702C12.7105 13.9702 14.289 12.3916 14.289 10.4513V4.48919C14.289 2.54879 12.7105 0.970215 10.7701 0.970215ZM13.5269 10.4513C13.5269 11.9714 12.2902 13.2081 10.7701 13.2081H4.80804C3.28788 13.2081 2.05118 11.9714 2.05118 10.4513V4.48919C2.05118 2.96902 3.28788 1.73233 4.80804 1.73233H10.7702C12.2902 1.73233 13.5269 2.96902 13.5269 4.48919V10.4513Z" fill="#17254E"/>
<path id="Vector_3" d="M7.78895 3.91553C5.82891 3.91553 4.23438 5.51008 4.23438 7.47011C4.23438 9.43015 5.82891 11.0247 7.78895 11.0247C9.74898 11.0247 11.3435 9.43015 11.3435 7.47011C11.3435 5.51008 9.74898 3.91553 7.78895 3.91553ZM7.78895 10.2626C6.24925 10.2626 4.99648 9.00991 4.99648 7.47011C4.99648 5.93041 6.24925 4.67765 7.78895 4.67765C9.32875 4.67765 10.5814 5.93041 10.5814 7.47011C10.5814 9.00991 9.32875 10.2626 7.78895 10.2626Z" fill="#17254E"/>
<path id="Vector_4" d="M11.4288 2.65283C10.8495 2.65283 10.3784 3.12404 10.3784 3.70316C10.3784 4.28239 10.8495 4.7536 11.4288 4.7536C12.008 4.7536 12.4792 4.28239 12.4792 3.70316C12.4792 3.12394 12.008 2.65283 11.4288 2.65283ZM11.4288 3.99139C11.2699 3.99139 11.1405 3.86205 11.1405 3.70316C11.1405 3.54418 11.2699 3.41494 11.4288 3.41494C11.5877 3.41494 11.7171 3.54418 11.7171 3.70316C11.7171 3.86205 11.5877 3.99139 11.4288 3.99139Z" fill="#17254E"/>
</g>
</g>
</g>
</g>
</svg>
