<svg width="342" height="271" viewBox="0 0 342 271" fill="none" xmlns="http://www.w3.org/2000/svg">
<rect width="342" height="271" fill="#17254E"/>
<path d="M39.943 115.679C37.898 120.535 36.224 125.815 36.224 127.413V130.318L46.174 130.718C51.647 130.938 56.457 131.451 56.864 131.858C57.272 132.265 56.849 133.354 55.925 134.278C54.661 135.543 51.904 136.06 44.765 136.372C34.141 136.837 34.784 136.293 33.672 145.774L33 151.497L85.362 150.886C114.161 150.55 137.957 150.096 137.957 150.096C137.957 150.096 122.404 141.55 121.105 141.527C120.346 141.514 117.024 140.383 113.724 139.012C110.424 137.642 103.257 135.841 97.798 135.009C86.506 133.288 82.799 131.43 78.613 125.393C76.091 121.757 75.724 120.326 75.724 114.139V107.051L59.693 106.951L43.662 106.851L39.943 115.679Z" fill="#52B4E2"/>
<path d="M149.224 53.496C140.497 54.411 122.913 61.076 116.964 65.724C108.056 72.684 101.253 73.017 95.535 66.775C93.714 64.787 92.214 62.686 92.202 62.106C92.19 61.526 91.382 60.014 90.407 58.748C88.876 56.757 88.26 56.587 85.873 57.494C82.865 58.638 73.192 67.383 70.041 71.808L68.073 74.571L78.899 74.015C92.645 73.309 95.464 73.259 113.802 73.406C122.095 73.473 135.145 72.862 142.802 72.05C160.349 70.188 183.61 70.188 197.224 72.051C209.431 73.721 237.224 74.069 237.224 72.551C237.224 72.001 236.37 71.551 235.327 71.551C234.283 71.551 230.796 70.258 227.577 68.678C217.491 63.727 199.937 56.322 194.724 54.818C188.85 53.124 160.597 52.303 149.224 53.496Z" fill="#52B4E2"/>
<path d="M252.085 63.593C246.724 68.843 244.576 70.3 240.282 71.603C237.913 72.322 237.983 72.387 241.224 72.482C243.149 72.539 247.649 73.19 251.224 73.929C256.355 74.989 259.574 75.038 266.51 74.162L275.296 73.051L269.01 66.914C263.44 61.476 259.517 58.551 257.795 58.551C257.486 58.551 254.917 60.82 252.085 63.593Z" fill="#52B4E2"/>
<path d="M198.253 158.974C197.656 160.544 197.306 161.966 197.475 162.135C197.644 162.304 206.994 162.524 218.253 162.624C237.844 162.799 253.108 164.348 257.291 166.587C258.305 167.13 260.157 169.802 261.406 172.525C263.225 176.49 264.08 177.387 265.701 177.033C270.331 176.02 284.548 174.61 296.474 173.982C307.312 173.411 309.225 173.066 309.233 171.681C309.237 170.784 309.518 167.752 309.855 164.942L310.469 159.834L255.597 159.092C217.04 158.57 200.518 158.018 200.031 157.234C199.617 156.567 198.902 157.267 198.253 158.974Z" fill="#52B4E2"/>
<path d="M79.853 197.645C79.244 198.987 76.108 199.343 60.001 199.904C49.481 200.269 40.655 200.787 40.388 201.054C40.121 201.32 40.457 204.016 41.135 207.045L42.367 212.551H62.863H83.359L82.63 210.301C82.229 209.063 81.603 205.351 81.239 202.051C80.83 198.345 80.3 196.66 79.853 197.645Z" fill="#52B4E2"/>
<path d="M34.602 184.051C34.398 184.601 34.811 187.301 35.52 190.051C36.408 193.494 37.26 194.948 38.256 194.721C39.052 194.54 48.82 194.133 59.963 193.817L80.224 193.243V187.896V182.549L57.599 182.8C43.664 182.955 34.831 183.435 34.602 184.051Z" fill="#52B4E2"/>
<path d="M139.724 157.608C137.524 158.063 116.374 158.464 92.724 158.499C69.074 158.534 45.965 158.856 41.37 159.213L33.016 159.863L33.4 166.654C33.611 170.388 33.995 173.64 34.254 173.879C34.512 174.119 45.074 174.636 57.724 175.027L80.724 175.739L82.23 170.395L83.736 165.051L91.73 164.4C118.4 162.227 130.778 161.566 138.974 161.877C147.02 162.183 148.224 162.015 148.224 160.59C148.224 158.689 146.299 156.499 144.774 156.666C144.196 156.729 141.924 157.153 139.724 157.608Z" fill="#52B4E2"/>
<path d="M100.974 177.229C99.355 177.663 99.224 180.017 99.224 208.656C99.224 232.5 99.511 239.724 100.474 240.093C101.162 240.356 104.199 240.68 107.224 240.811L112.724 241.051L113.005 229.427L113.285 217.803L117.005 217.188C119.05 216.85 123.761 216.568 127.474 216.562L134.224 216.551V211.676C134.224 207.016 134.086 206.773 131.099 206.176C129.38 205.832 124.655 205.551 120.599 205.551H113.224V196.581V187.611L125.974 187.331L138.724 187.051V182.051V177.051L120.724 176.906C110.824 176.826 101.937 176.972 100.974 177.229Z" fill="white"/>
<path fill-rule="evenodd" clip-rule="evenodd" d="M146.884 187.07C146.005 201.434 146.168 241.55 147.115 243.966C148.024 246.283 150.21 246.749 156.474 245.961L161.224 245.363V233.957V222.551H168.637C175.036 222.551 176.915 222.106 182.387 219.297C190.66 215.049 193.245 210.449 193.18 200.089C193.109 188.645 190.375 183.201 182.742 179.306C179.407 177.604 176.222 177.193 163.152 176.776L147.545 176.278L146.884 187.07ZM179.224 199.946C179.224 193.528 177.242 189.056 174.014 188.192C172.755 187.854 169.347 187.572 166.442 187.565L161.161 187.551L161.442 199.301L161.724 211.051L168.153 210.944C173.828 210.849 174.853 210.521 176.903 208.138C178.722 206.023 179.224 204.251 179.224 199.946Z" fill="white"/>
<path d="M197.224 178.639C197.224 182.331 213.354 243.014 214.69 244.351C215.516 245.176 230.475 244.487 232.24 243.543C233.13 243.066 234.331 240.736 234.908 238.364C235.485 235.992 238.962 222.378 242.635 208.112C246.308 193.846 249.181 181.264 249.019 180.153C248.696 177.941 245.811 176.808 240.102 176.651C236.589 176.554 236.46 176.68 235.82 180.801C234.956 186.37 225.207 225.649 224.249 227.423C223.821 228.215 220.83 217.745 217.177 202.673L210.846 176.551H204.035C197.795 176.551 197.224 176.726 197.224 178.639Z" fill="white"/>
<path d="M92.257 83.012C91.59 83.815 90.809 86.229 90.521 88.376C90.08 91.662 90.366 92.537 92.333 93.915C95.576 96.186 97.117 95.964 98.219 93.063L99.165 90.576L103.843 93.063C107.842 95.19 109.844 95.551 117.623 95.548C130.972 95.543 149.224 92.116 149.224 89.614C149.224 86.017 114.335 84.561 104.474 87.747C99.515 89.349 99.224 89.348 99.224 87.72C99.224 85.421 96.442 81.551 94.79 81.551C94.063 81.551 92.923 82.208 92.257 83.012Z" fill="white"/>
<path d="M59.224 87.006C47.818 88.488 40.454 89.988 39.398 91.044C38.127 92.314 42.338 94.346 49.023 95.689C52.709 96.43 61.124 97.039 67.724 97.043C78.691 97.05 80.11 96.835 84.213 94.538C92.616 89.833 89.999 86.576 77.347 85.993C73.154 85.8 64.999 86.256 59.224 87.006Z" fill="white"/>
<path fill-rule="evenodd" clip-rule="evenodd" d="M239.085 39.444C240.165 40.128 239.547 41.977 236.085 48.414C233.686 52.874 231.135 56.529 230.415 56.537C228.289 56.56 230.075 58.434 234.252 60.565C238.56 62.763 242.35 63.089 245.291 61.515C247.289 60.446 252.224 51.694 252.224 49.219C252.224 46.887 248.264 42.612 244.169 40.523C240.253 38.525 236.316 37.689 239.085 39.444ZM246.704 52.592C249.495 46.754 249.523 46.538 247.743 44.572C246.737 43.46 245.421 42.557 244.819 42.565C243.865 42.577 235.224 57.373 235.224 58.994C235.224 59.327 236.412 60.052 237.864 60.604C241.31 61.914 242.966 60.413 246.704 52.592Z" fill="white"/>
<path d="M218.003 31.801C219.297 33.38 213.135 50.171 211.398 49.801C210.752 49.663 210.224 49.912 210.224 50.354C210.224 50.796 213.432 52.191 217.354 53.454C224.753 55.837 226.221 55.52 226.177 51.551C226.164 50.34 225.904 50.388 224.832 51.801C223.31 53.806 222.354 53.931 218.824 52.589C216.319 51.637 216.31 51.59 217.864 47.839C219.829 43.098 219.67 43.24 222.149 44.027C223.371 44.415 224.257 45.583 224.305 46.868C224.376 48.759 224.57 48.649 225.76 46.051C227.579 42.078 227.71 39.518 225.974 41.844C225.15 42.948 223.956 43.315 222.474 42.919C219.813 42.208 219.77 41.882 221.717 37.223C223.139 33.818 223.351 33.699 226.217 34.698C228.521 35.501 229.224 36.355 229.224 38.349C229.224 41.187 230.823 40.345 231.39 37.208C231.654 35.75 230.364 34.864 225.224 32.974C217.801 30.245 216.564 30.044 218.003 31.801Z" fill="white"/>
<path d="M198.79 26.861C199.535 28.803 195.619 44.689 194.175 45.581C193.432 46.041 195.3 46.818 198.829 47.518C207.734 49.285 207.697 49.289 208.003 46.551C208.26 44.255 208.17 44.194 206.891 45.804C205.053 48.119 198.931 47.166 199.618 44.671C199.864 43.78 200.858 39.564 201.827 35.301C203.087 29.76 204.036 27.531 205.157 27.481C207.466 27.377 203.294 25.71 200.505 25.621C199.07 25.576 198.464 26.013 198.79 26.861Z" fill="white"/>
<path fill-rule="evenodd" clip-rule="evenodd" d="M175.224 23.515C175.224 23.993 175.634 24.534 176.134 24.718C177.371 25.171 175.52 42.75 174.146 43.599C173.153 44.213 180.159 45.551 184.364 45.551C186.791 45.551 190.224 42.078 190.224 39.622C190.224 38.562 189.497 36.967 188.609 36.079C187.122 34.592 187.122 34.322 188.609 32.678C190.893 30.154 190.612 26.839 187.974 25.193C185.362 23.563 175.224 22.229 175.224 23.515ZM182.249 33.551C184.708 33.551 186.864 28.828 185.445 26.551C183.934 24.128 181.542 24.233 180.867 26.753C179.652 31.289 180.112 33.551 182.249 33.551ZM184.034 43.668C185.791 42.582 186.553 37.652 185.213 36.038C183.083 33.472 180.534 34.25 179.849 37.676C179.505 39.395 179.224 41.367 179.224 42.059C179.224 43.512 182.509 44.611 184.034 43.668Z" fill="white"/>
<path fill-rule="evenodd" clip-rule="evenodd" d="M157.923 24.301C157.692 24.714 156.465 29.326 155.196 34.551C153.927 39.776 152.177 44.65 151.307 45.383C149.891 46.574 149.917 46.653 151.556 46.133C152.563 45.813 154.138 45.515 155.056 45.472C156.095 45.423 156.253 45.203 155.474 44.889C152.093 43.525 155.785 38.551 160.179 38.551C163.304 38.551 165.002 41.909 163.06 44.249C162.235 45.243 162.422 45.523 163.852 45.433C166.698 45.253 171.932 43.804 170.222 43.669C169.287 43.596 167.25 39.778 164.823 33.551C161.375 24.702 159.273 21.885 157.923 24.301ZM162.208 37.551L160.553 33.301C159.643 30.964 158.792 28.909 158.662 28.734C158.184 28.097 157.388 30.158 156.703 33.809C156.015 37.479 156.061 37.551 159.105 37.551H162.208Z" fill="white"/>
<path d="M134.452 27.781C133.203 28.383 131.896 30.009 131.549 31.394C130.825 34.278 133.031 38.938 135.258 39.227C142.456 40.163 144.16 40.774 144.75 42.634C146.224 47.278 138.825 49.595 136.018 45.368C135.047 43.905 134.335 43.563 133.86 44.331C133.47 44.962 134.097 46.424 135.253 47.58C136.878 49.205 138.075 49.536 140.539 49.042C144.77 48.192 148.512 44.06 147.638 41.203C146.518 37.545 145.188 36.615 140.105 35.941C136.081 35.407 135.092 34.873 134.616 32.977C133.852 29.931 134.813 28.551 137.7 28.551C139.334 28.551 140.316 29.328 140.902 31.086C141.661 33.363 141.939 33.48 143.638 32.238C145.479 30.891 145.472 30.799 143.376 28.703C141.043 26.37 138.027 26.058 134.452 27.781Z" fill="white"/>
<path d="M120.724 31.767C116.752 33.168 116.606 33.361 118.423 34.811C120.255 36.274 125.524 51.256 124.684 52.615C123.949 53.805 124.239 53.79 128.114 52.44C130.723 51.53 131.044 51.122 129.883 50.19C127.529 48.3 123.052 33.463 124.36 31.887C125.65 30.332 124.866 30.306 120.724 31.767Z" fill="white"/>
<path fill-rule="evenodd" clip-rule="evenodd" d="M99.974 41.221C96.812 42.661 94.224 44.224 94.224 44.695C94.224 45.166 94.777 45.439 95.453 45.301C97.337 44.918 105.313 60.739 104.021 62.296C102.399 64.25 104.275 63.75 109.712 60.778C112.466 59.272 115.283 56.833 116.002 55.33C117.136 52.962 117.029 51.969 115.172 47.652C111.384 38.846 108.175 37.488 99.974 41.221ZM113.224 54.976C113.224 52.296 109.984 45.18 107.453 42.301C105.631 40.229 104.216 40.102 101.909 41.801C100.352 42.948 100.554 43.711 104.367 51.051C106.653 55.451 108.642 59.2 108.788 59.382C108.933 59.564 109.991 59.211 111.138 58.597C112.4 57.921 113.224 56.491 113.224 54.976Z" fill="white"/>
<path fill-rule="evenodd" clip-rule="evenodd" d="M89.224 102.33C89.224 104.969 88.712 106.534 87.724 106.913C86.649 107.325 86.224 109.006 86.224 112.845C86.224 119.076 88.441 121.893 94.224 123.013C103.847 124.875 141.338 138.982 148.583 143.467C152.773 146.06 156.315 150.031 159.633 155.853C162.656 161.158 165.175 162.551 171.742 162.551C178.179 162.551 180.737 160.953 186.294 153.457C189.179 149.564 193.387 145.371 196.254 143.532C205.852 137.373 237.952 124.351 246.641 123.091C252.308 122.27 255.795 120.299 256.526 117.504C257.121 115.23 255.278 108.551 254.056 108.551C253.598 108.551 253.224 107.171 253.224 105.485C253.224 103.799 252.751 101.537 252.174 100.457C251.261 98.752 250.445 98.579 245.924 99.138C243.064 99.491 240.18 100.465 239.515 101.301C237.722 103.555 236.749 111.476 238.099 112.826C240.716 115.443 239.292 117.287 233.474 118.819C219.537 122.489 189.96 130.968 186.455 132.298C185.476 132.67 185.419 132.169 186.205 130.1C190.177 119.653 182.368 111.534 169.612 112.85C163.437 113.488 158.852 115.878 157.309 119.263C155.985 122.17 155.904 127.58 157.137 130.823C158.038 133.192 157.795 133.15 139.887 127.877C129.898 124.936 117.708 121.42 112.799 120.065C107.891 118.71 103.532 117.253 103.114 116.826C102.695 116.4 102.849 114.207 103.455 111.952C104.477 108.148 104.35 107.574 101.681 103.952C100.099 101.807 98.787 99.981 98.764 99.895C98.742 99.808 96.586 99.42 93.974 99.031L89.224 98.324V102.33ZM177.635 132.047C179.973 128.478 180.711 123.843 179.226 122.053C178.113 120.712 173.395 120.151 170.724 121.042C170.174 121.226 168.486 121.649 166.974 121.983C164.708 122.482 164.224 123.126 164.224 125.636C164.224 128.841 165.77 132.548 167.624 133.786C168.229 134.19 170.36 134.527 172.359 134.536C175.144 134.547 176.378 133.966 177.635 132.047Z" fill="white"/>
<path d="M282.706 107.326L267.688 107.601L268.058 114.925C268.411 121.931 268.292 122.404 265.323 125.785C261.619 130.004 254.648 132.986 243.724 135.025C235.31 136.595 214.384 144.378 210.365 147.432C208.072 149.174 208.778 149.243 235.277 149.888C250.277 150.253 273.051 150.551 285.886 150.551H309.224V146.676C309.224 144.545 308.966 141.507 308.65 139.926L308.077 137.051L289.4 137.306L270.724 137.562L267.859 135.005C266.283 133.599 265.158 132.359 265.359 132.25C265.56 132.14 266.795 131.448 268.105 130.711C269.713 129.806 276.123 129.189 287.855 128.81C301.131 128.381 305.224 127.943 305.224 126.951C305.224 124.598 300.309 110.044 299.004 108.533C297.958 107.322 294.977 107.101 282.706 107.326Z" fill="#52B4E2"/>
<path d="M257.232 86.897C250.135 88.388 249.465 90.613 255.226 93.552C262.379 97.201 273.877 98.119 287.588 96.134C309.387 92.98 309.767 90.975 289.149 87.898C272.86 85.467 265.188 85.226 257.232 86.897Z" fill="white"/>
<path d="M242.412 85.441C242.412 85.441 241.104 89.2112 242.111 91.245L242.125 91.2726C242.973 92.9863 243.534 94.1183 245.948 94.358C245.948 94.358 248.906 93.2677 249.704 91.643C249.704 91.643 244.58 79.223 242.412 85.441Z" fill="white"/>
<path d="M203.522 86.952C199.011 87.595 194.991 88.451 194.589 88.853C191.9 91.542 203.352 94.577 218.791 95.267C229.591 95.75 231.357 95.586 235.618 93.701C249.16 87.711 228.564 83.38 203.522 86.952Z" fill="white"/>
<g clip-path="url(#clip0_167_890)">
<mask id="mask0_167_890" style="mask-type:luminance" maskUnits="userSpaceOnUse" x="173" y="76" width="54" height="41">
<path d="M227 76H173V117H227V76Z" fill="white"/>
</mask>
<g mask="url(#mask0_167_890)">
<path d="M146.774 77.386C147.297 77.845 149.955 79.043 152.681 80.048C158.621 82.237 162.224 85.575 162.224 88.889C162.224 92.258 156.049 97.581 148.702 100.545C141.43 103.48 139.867 104.902 140.467 108.043C140.841 109.997 140.378 110.65 138.048 111.462C136.464 112.015 134.505 112.212 133.696 111.902C132.886 111.591 132.224 111.783 132.224 112.327C132.224 113.31 133.703 113.918 139.986 115.516C143.035 116.292 143.525 116.032 147.486 111.541C154.059 104.089 158.881 102.041 169.724 102.099C180.846 102.157 186.761 104.482 193.689 111.516L198.471 116.37L203.097 115.038C205.642 114.305 211.549 112.953 216.224 112.034C225.815 110.149 227.366 109.264 225.084 106.983C224.066 105.964 220.292 105.116 214.127 104.521C189.744 102.167 181.224 98.487 181.224 90.311C181.224 84.694 182.71 82.668 188.809 79.971C191.787 78.654 194.224 77.346 194.224 77.064C194.224 76.782 183.334 76.551 170.024 76.551C156.714 76.551 146.251 76.927 146.774 77.386Z" fill="white"/>
</g>
<mask id="mask1_167_890" style="mask-type:luminance" maskUnits="userSpaceOnUse" x="119" y="76" width="54" height="41">
<path d="M119 76H173V117H119V76Z" fill="white"/>
</mask>
<g mask="url(#mask1_167_890)">
<path d="M199.226 77.386C198.703 77.845 196.045 79.043 193.319 80.048C187.379 82.237 183.776 85.575 183.776 88.889C183.776 92.258 189.951 97.581 197.298 100.545C204.57 103.48 206.133 104.902 205.533 108.043C205.159 109.997 205.622 110.65 207.952 111.462C209.536 112.015 211.495 112.212 212.304 111.902C213.114 111.591 213.776 111.783 213.776 112.327C213.776 113.31 212.297 113.918 206.014 115.516C202.965 116.292 202.475 116.032 198.514 111.541C191.941 104.089 187.119 102.041 176.276 102.099C165.154 102.157 159.239 104.482 152.311 111.516L147.529 116.37L142.903 115.038C140.358 114.305 134.451 112.953 129.776 112.034C120.185 110.149 118.634 109.264 120.916 106.983C121.934 105.964 125.708 105.116 131.873 104.521C156.256 102.167 164.776 98.487 164.776 90.311C164.776 84.694 163.29 82.668 157.191 79.971C154.213 78.654 151.776 77.346 151.776 77.064C151.776 76.782 162.666 76.551 175.976 76.551C189.286 76.551 199.749 76.927 199.226 77.386Z" fill="white"/>
</g>
</g>
<path d="M308.482 183.804C308.697 184.347 308.396 187.059 307.813 189.831C307.083 193.302 306.319 194.783 305.357 194.59C304.589 194.435 295.226 194.355 284.55 194.412L265.139 194.515L264.952 189.171L264.766 183.828L286.429 183.322C299.771 183.012 308.242 183.196 308.482 183.804Z" fill="#52B4E2"/>
<path d="M265.419 199.273C266.013 200.599 269.072 200.951 284.782 201.505C295.042 201.866 303.65 202.378 303.911 202.641C304.171 202.904 303.843 205.568 303.182 208.56L301.98 214H281.99H262L262.711 211.777C263.102 210.554 263.713 206.887 264.068 203.626C264.467 199.965 264.983 198.3 265.419 199.273Z" fill="#52B4E2"/>
<defs>
<clipPath id="clip0_167_890">
<rect width="108" height="41" fill="white" transform="translate(119 76)"/>
</clipPath>
</defs>
</svg>
