<svg width="14" height="11" viewBox="0 0 14 11" fill="none" xmlns="http://www.w3.org/2000/svg">
<g id="SVG">
<path id="Vector" d="M9.01017 4.81218L6.13818 3.24075C5.97304 3.1504 5.77785 3.15377 5.61599 3.24968C5.45402 3.34568 5.35742 3.51528 5.35742 3.70353V6.81941C5.35742 7.00677 5.45343 7.17607 5.6143 7.27217C5.69831 7.32236 5.79144 7.34755 5.88477 7.34755C5.97026 7.34755 6.05596 7.32643 6.13481 7.28398L9.0069 5.73962C9.17739 5.64788 9.28381 5.47064 9.28461 5.27694C9.2853 5.08324 9.18017 4.90521 9.01017 4.81218ZM6.11923 6.42745V4.09867L8.26572 5.27317L6.11923 6.42745Z" fill="#17254E"/>
<path id="Vector_2" d="M13.4136 2.79413L13.413 2.78818C13.402 2.68354 13.2924 1.75282 12.8399 1.27944C12.3169 0.722632 11.724 0.65499 11.4389 0.622558C11.4153 0.61988 11.3936 0.6174 11.3743 0.614821L11.3516 0.612441C9.63297 0.487472 7.03749 0.470413 7.01151 0.470314L7.00923 0.470215L7.00695 0.470314C6.98096 0.470413 4.38548 0.487472 2.6514 0.612441L2.62849 0.614821C2.61004 0.617301 2.58971 0.619582 2.56759 0.622161C2.28571 0.654692 1.69916 0.722433 1.17469 1.29937C0.743742 1.7677 0.61917 2.67848 0.606376 2.78084L0.604888 2.79413C0.60102 2.83767 0.509277 3.87422 0.509277 4.91482V5.8876C0.509277 6.92821 0.60102 7.96475 0.604888 8.00839L0.605582 8.01495C0.616592 8.1179 0.726088 9.03156 1.17647 9.50515C1.66821 10.0433 2.28998 10.1145 2.62442 10.1528C2.67728 10.1588 2.72281 10.164 2.75385 10.1695L2.7839 10.1736C3.77621 10.268 6.88743 10.3146 7.01934 10.3164L7.02331 10.3165L7.02728 10.3164C7.05326 10.3163 9.64864 10.2993 11.3673 10.1743L11.39 10.1719C11.4117 10.1691 11.4361 10.1665 11.4629 10.1637C11.7432 10.134 12.3265 10.0722 12.8438 9.50305C13.2747 9.03463 13.3994 8.12385 13.4121 8.02158L13.4136 8.0083C13.4174 7.96465 13.5093 6.92821 13.5093 5.8876V4.91482C13.5092 3.87422 13.4174 2.83777 13.4136 2.79413ZM12.7474 5.8876C12.7474 6.85075 12.6633 7.84266 12.6553 7.93371C12.623 8.18455 12.4916 8.76079 12.2816 8.98901C11.9579 9.34517 11.6253 9.38048 11.3825 9.40615C11.3532 9.40924 11.326 9.4122 11.3014 9.41529C9.63912 9.53549 7.14163 9.55394 7.02658 9.55464C6.89755 9.55274 3.83185 9.50584 2.86979 9.41648C2.8205 9.40843 2.76724 9.40229 2.7111 9.39594C2.42635 9.36331 2.03657 9.31869 1.73685 8.98901L1.7298 8.98146C1.52351 8.76653 1.39586 8.22768 1.36343 7.93668C1.35738 7.86785 1.27109 6.86423 1.27109 5.8876V4.91482C1.27109 3.95278 1.355 2.96194 1.36313 2.86901C1.40171 2.57355 1.53561 2.03222 1.73685 1.81342C2.07049 1.44646 2.42229 1.40579 2.65497 1.37891C2.67718 1.37634 2.69791 1.37396 2.71705 1.37148C4.40353 1.25067 6.91897 1.23272 7.00923 1.23203C7.09948 1.23262 9.61403 1.25067 11.2855 1.37148C11.3061 1.37405 11.3285 1.37663 11.3526 1.37941C11.5919 1.40669 11.9536 1.44794 12.2856 1.80202L12.2887 1.80529C12.4949 2.02022 12.6226 2.56849 12.655 2.86534C12.6608 2.9303 12.7474 3.93611 12.7474 4.91482V5.8876Z" fill="#17254E"/>
</g>
</svg>
